<svg width="57" height="29" viewBox="0 0 57 29" fill="none" xmlns="http://www.w3.org/2000/svg">
<path d="M33 1.16C33 1.16 32.97 1.16 32.96 1.16C30.08 0.41 26.91 0 23.58 0C10.56 0 0 6.32 0 14.11C0 21.9 10.56 28.22 23.58 28.22C26.91 28.22 30.09 27.8 32.96 27.06C32.97 27.06 32.99 27.06 33 27.06C46.02 27.06 56.58 21.26 56.58 14.11C56.58 6.96 46.03 1.16 33 1.16ZM40.25 24.37C39.74 24.53 39.43 23.88 39.89 23.63C44.37 21.23 47.16 17.86 47.16 14.12C47.16 10.38 44.37 7.01 39.89 4.61C39.43 4.36 39.75 3.7 40.25 3.87C46.91 6.01 51.34 9.8 51.34 14.12C51.34 18.44 46.91 22.24 40.25 24.37Z" fill="#5CD93D"/>
</svg>
