<svg width="37" height="39" viewBox="0 0 37 39" fill="none" xmlns="http://www.w3.org/2000/svg">
<path d="M0 2.90351C0 2.90351 0 2.79539 0 2.74734C0.204886 -0.0758097 3.92899 -1.01285 5.53192 1.31774C8.72573 5.95491 13.3417 12.5022 15.6919 15.1812C17.1743 16.8751 19.8257 16.8751 21.3081 15.1812C23.6583 12.5142 28.2622 5.96692 31.4681 1.31774C33.071 -1.01285 36.7951 -0.0758097 37 2.74734C37 2.8074 37 2.85546 37 2.90351C37 11.5291 28.9612 18.581 18.9821 18.7972H18.5H18.0179C8.03876 18.569 0 11.5291 0 2.90351ZM18.9821 20.1908H18.5H18.0179C8.03876 20.419 0 27.4589 0 36.0965C0 36.1445 0 36.2046 0 36.2527C0.192834 39.0758 3.91694 40.0008 5.53192 37.6823C8.72573 33.0451 13.3417 26.4978 15.6919 23.8188C17.1743 22.1249 19.8257 22.1249 21.3081 23.8188C23.6583 26.4858 28.2622 33.0331 31.4681 37.6823C33.071 40.0129 36.7951 39.0758 37 36.2527C37 36.1926 37 36.1445 37 36.0965C37 27.4709 28.9612 20.419 18.9821 20.2028V20.1908Z" fill="#5CD93D"/>
</svg>
