<svg width="45" height="56" viewBox="0 0 45 56" fill="none" xmlns="http://www.w3.org/2000/svg">
<g clip-path="url(#clip0_583_2038)">
<path d="M22.2491 8.11875C18.5491 8.11875 15.0656 9.02407 11.9954 10.628C12.389 15.1054 13.255 20.3799 15.0656 25.4477C16.03 28.1538 17.3289 30.6631 18.9723 32.7984C20.0055 34.1466 21.0486 34.7665 22.505 34.7665C23.9613 34.7665 24.9552 34.1269 26.018 32.7984C29.1472 28.8623 30.4757 23.9519 31.3219 20.7243C31.3711 20.5275 31.4302 20.4488 31.5384 20.4488C31.6467 20.4488 31.7943 20.5275 31.8927 20.744C33.1227 23.391 33.3786 27.8881 32.4733 31.5684C30.9972 37.571 27.8778 43.0226 23.3808 46.7915C23.0954 47.0276 22.8297 47.1457 22.505 47.1457C22.1802 47.1457 21.9145 47.0276 21.6292 46.7816C18.185 43.9082 15.3608 40.1295 13.442 35.7702C10.7949 29.8463 9.24012 20.4389 9.39757 12.2222C3.70982 16.2469 0 22.8695 0 30.3679C0 42.6585 9.95847 52.617 22.2491 52.617C34.5397 52.617 44.4982 42.6585 44.4982 30.3679C44.4982 18.0772 34.5397 8.11875 22.2491 8.11875ZM11.7789 0.187401C11.7888 0.0791566 11.7396 0.0299546 11.651 0.000433475C11.5723 -0.0192473 11.4936 0.0299546 11.4542 0.108678C10.1159 3.14936 9.46645 7.47913 9.37788 12.2124C10.2045 11.6219 11.0803 11.0905 11.9856 10.6182C11.5526 5.75706 11.6805 1.83075 11.7691 0.187401H11.7789Z" fill="white"/>
</g>
<defs>
<clipPath id="clip0_583_2038">
<rect width="44.8" height="56" fill="white"/>
</clipPath>
</defs>
</svg>
