<svg width="45" height="39" viewBox="0 0 45 39" fill="none" xmlns="http://www.w3.org/2000/svg">
<path d="M6.18977 6.45023C7.72977 4.85023 9.77977 3.96023 11.9498 3.96023C14.1198 3.96023 16.1798 4.84023 17.7098 6.45023C19.2398 8.04023 20.0898 10.1602 20.0998 12.4102C20.0998 12.4202 20.0998 12.4402 20.0998 12.4502H23.9098C23.9098 12.4502 23.9098 12.4202 23.9098 12.4102C23.9198 10.1602 24.7698 8.04023 26.2998 6.45023C27.8398 4.85023 29.8898 3.96023 32.0598 3.96023C34.2298 3.96023 36.2898 4.84023 37.8198 6.45023C39.3598 8.05023 40.2098 10.1802 40.2098 12.4502H44.0098C44.0098 10.7702 43.6898 9.14023 43.0698 7.60023C42.4698 6.12023 41.6098 4.79023 40.5098 3.64023C39.4098 2.49023 38.1298 1.60023 36.7098 0.970234C35.2298 0.320234 33.6698 -0.00976562 32.0598 -0.00976562C30.4498 -0.00976562 28.8798 0.320234 27.4098 0.970234C25.9898 1.60023 24.7098 2.49023 23.6098 3.64023C22.9998 4.27023 22.4698 4.96023 22.0098 5.71023C21.5498 4.97023 21.0198 4.28023 20.4098 3.64023C19.3098 2.50023 18.0298 1.60023 16.6098 0.970234C15.1298 0.320234 13.5698 -0.00976562 11.9598 -0.00976562C10.3498 -0.00976562 8.77977 0.320234 7.30977 0.970234C5.88977 1.60023 4.60977 2.49023 3.50977 3.64023C2.40977 4.78023 1.54977 6.11023 0.949766 7.60023C0.329766 9.14023 0.00976562 10.7702 0.00976562 12.4502H3.80977C3.80977 10.1802 4.65977 8.05023 6.19977 6.45023H6.18977Z" fill="#5CD93D"/>
<path d="M40.5195 16.9C39.4195 15.76 38.1395 14.86 36.7195 14.23C35.2395 13.58 33.6795 13.25 32.0695 13.25C30.4595 13.25 28.8895 13.58 27.4195 14.23C25.9995 14.86 24.7195 15.75 23.6195 16.9C23.0095 17.53 22.4795 18.22 22.0195 18.97C21.5595 18.23 21.0295 17.54 20.4195 16.9C19.3195 15.76 18.0395 14.86 16.6195 14.23C15.1395 13.58 13.5795 13.25 11.9695 13.25C10.3595 13.25 8.78953 13.58 7.31953 14.23C5.89953 14.86 4.61953 15.75 3.51953 16.9C2.41953 18.04 1.55953 19.37 0.959531 20.86C0.339531 22.4 0.0195312 24.03 0.0195312 25.71H3.81953C3.81953 23.44 4.66953 21.31 6.20953 19.71C7.74953 18.11 9.79953 17.22 11.9695 17.22C14.1395 17.22 16.1995 18.1 17.7295 19.71C19.2595 21.3 20.1095 23.42 20.1195 25.67C20.1195 25.68 20.1195 25.7 20.1195 25.71H23.9295C23.9295 25.71 23.9295 25.68 23.9295 25.67C23.9395 23.42 24.7895 21.3 26.3195 19.71C27.8595 18.11 29.9095 17.22 32.0795 17.22C34.2495 17.22 36.3095 18.1 37.8395 19.71C39.3695 21.32 40.2295 23.44 40.2295 25.71H44.0295C44.0295 24.03 43.7095 22.4 43.0895 20.86C42.4895 19.38 41.6295 18.05 40.5295 16.9H40.5195Z" fill="#5CD93D"/>
<path d="M40.5195 30.15C39.4195 29.01 38.1395 28.11 36.7195 27.48C35.2395 26.83 33.6795 26.5 32.0695 26.5C30.4595 26.5 28.8895 26.83 27.4195 27.48C25.9995 28.11 24.7195 29 23.6195 30.15C23.0095 30.78 22.4795 31.47 22.0195 32.22C21.5595 31.48 21.0295 30.79 20.4195 30.15C19.3195 29.01 18.0395 28.11 16.6195 27.48C15.1395 26.83 13.5795 26.5 11.9695 26.5C10.3595 26.5 8.78953 26.83 7.31953 27.48C5.89953 28.11 4.61953 29 3.51953 30.15C2.41953 31.29 1.55953 32.62 0.959531 34.11C0.339531 35.65 0.0195312 37.28 0.0195312 38.96H3.81953C3.81953 36.69 4.66953 34.56 6.20953 32.96C7.74953 31.36 9.79953 30.47 11.9695 30.47C14.1395 30.47 16.1995 31.35 17.7295 32.96C19.2595 34.55 20.1095 36.67 20.1195 38.92C20.1195 38.93 20.1195 38.95 20.1195 38.96H23.9295C23.9295 38.96 23.9295 38.93 23.9295 38.92C23.9395 36.67 24.7895 34.55 26.3195 32.96C27.8595 31.36 29.9095 30.47 32.0795 30.47C34.2495 30.47 36.3095 31.35 37.8395 32.96C39.3795 34.56 40.2295 36.69 40.2295 38.96H44.0295C44.0295 37.28 43.7095 35.65 43.0895 34.11C42.4895 32.63 41.6295 31.3 40.5295 30.15H40.5195Z" fill="#5CD93D"/>
</svg>
