<svg width="60" height="71" viewBox="0 0 60 71" fill="none" xmlns="http://www.w3.org/2000/svg">
<path d="M29.7979 10.8727C24.8426 10.8727 20.1772 12.0852 16.0653 14.2334C16.5925 20.2299 17.7522 27.2938 20.1772 34.0811C21.4687 37.7053 23.2084 41.066 25.4093 43.9259C26.7931 45.7314 28.1901 46.5617 30.1406 46.5617C32.0911 46.5617 33.4222 45.705 34.8455 43.9259C39.0364 38.6542 40.8156 32.0779 41.949 27.7551C42.0149 27.4915 42.094 27.3861 42.239 27.3861C42.3839 27.3861 42.5816 27.4915 42.7134 27.7815C44.3608 31.3266 44.7035 37.3495 43.491 42.2785C41.5141 50.3177 37.3363 57.6189 31.3135 62.6665C30.9313 62.9828 30.5755 63.141 30.1406 63.141C29.7057 63.141 29.3498 62.9828 28.9676 62.6533C24.3549 58.805 20.5726 53.7443 18.0026 47.9059C14.4575 39.9721 12.3752 27.3729 12.586 16.3684C4.96851 21.7586 0 30.6282 0 40.6706C0 57.1313 13.3372 70.4685 29.7979 70.4685C46.2586 70.4685 59.5958 57.1313 59.5958 40.6706C59.5958 24.2099 46.2586 10.8727 29.7979 10.8727ZM15.7754 0.250355C15.7885 0.105385 15.7226 0.03949 15.604 -4.72432e-05C15.4986 -0.0264054 15.3932 0.03949 15.3405 0.144923C13.5481 4.21726 12.6783 10.0161 12.5597 16.3552C13.6667 15.5645 14.8396 14.8528 16.0521 14.2202C15.4722 7.70972 15.6436 2.45126 15.7622 0.250355H15.7754Z" fill="#FF4242"/>
</svg>
