<svg width="51" height="51" viewBox="0 0 51 51" fill="none" xmlns="http://www.w3.org/2000/svg">
<path d="M45.1174 33.0177C47.1101 30.7863 48.9716 28.5907 50.666 26.4906C51.1075 25.9417 51.1075 25.0587 50.666 24.4978C48.9716 22.3977 47.1221 20.2021 45.1174 17.9707C44.8668 17.6843 44.7117 17.3144 44.7117 16.9325C44.652 13.9017 44.5446 10.9066 44.4134 8.01888C44.3776 7.25519 43.7332 6.61083 42.9695 6.57503C40.0818 6.44377 37.0867 6.34831 34.0558 6.27672C33.674 6.27672 33.2922 6.12159 33.0177 5.87101C30.7863 3.86633 28.5907 2.01677 26.4906 0.322341C25.9417 -0.119166 25.0587 -0.119166 24.4978 0.322341C22.3977 2.01677 20.2021 3.86633 17.9707 5.87101C17.6843 6.12159 17.3144 6.27672 16.9325 6.27672C13.9017 6.33638 10.9066 6.44377 8.01888 6.57503C7.25519 6.61083 6.61083 7.25519 6.57503 8.01888C6.44377 10.9066 6.34831 13.9017 6.27672 16.9325C6.27672 17.3144 6.12159 17.6962 5.87101 17.9707C3.86633 20.2021 2.01677 22.3977 0.322341 24.4978C-0.119166 25.0467 -0.119166 25.9297 0.322341 26.4906C2.01677 28.5907 3.86633 30.7863 5.87101 33.0177C6.12159 33.3041 6.27672 33.674 6.27672 34.0558C6.33638 37.0867 6.44377 40.0818 6.57503 42.9695C6.61083 43.7332 7.25519 44.3776 8.01888 44.4134C10.9066 44.5446 13.9017 44.6401 16.9325 44.7117C17.3144 44.7117 17.6962 44.8668 17.9707 45.1174C20.2021 47.1221 22.3977 48.9716 24.4978 50.666C25.0467 51.1075 25.9297 51.1075 26.4906 50.666C28.5907 48.9716 30.7863 47.1221 33.0177 45.1174C33.3041 44.8668 33.674 44.7117 34.0558 44.7117C37.0867 44.652 40.0818 44.5446 42.9695 44.4134C43.7332 44.3776 44.3776 43.7332 44.4134 42.9695C44.5446 40.0818 44.6401 37.0867 44.7117 34.0558C44.7117 33.674 44.8668 33.2922 45.1174 33.0177Z" fill="#5CD93D"/>
</svg>
